<svg width="80" height="80" viewBox="0 0 80 80" fill="none" xmlns="http://www.w3.org/2000/svg">
<rect x="12" y="10" width="58" height="54" fill="#9999FF"/>
<path d="M33.8333 27.7607C32.5828 27.2547 31.2432 27.0219 29.9 27.0769C28.6885 27.0513 27.4765 27.0741 26.2667 27.1453V38.6325L27.5667 38.7009H29.3333C30.6333 38.7009 31.9333 38.4957 33.1667 38.0855C34.2333 37.7778 35.1667 37.1282 35.9 36.2735C36.6 35.4188 36.9333 34.2564 36.9333 32.7521C37.0086 31.6889 36.7477 30.629 36.1892 29.7299C35.6308 28.8308 34.8047 28.1402 33.8333 27.7607ZM65.8333 0H14.1667C10.4094 0 6.80609 1.53083 4.14932 4.25571C1.49256 6.9806 0 10.6763 0 14.5299L0 65.4701C0 73.5043 6.33333 80 14.1667 80H65.8333C73.6667 80 80 73.5043 80 65.4701V14.5299C80 6.49573 73.6667 0 65.8333 0ZM42.2 39.8291C40.8667 41.7436 39 43.1795 36.8333 44C34.5667 44.8547 32.0667 45.1624 29.3333 45.1624L27.6667 45.1282L26.2333 45.094V56.0684C26.2428 56.1249 26.2406 56.1829 26.2268 56.2385C26.2131 56.2941 26.1882 56.3461 26.1536 56.3912C26.1191 56.4363 26.0757 56.4735 26.0262 56.5003C25.9768 56.5271 25.9225 56.5431 25.8667 56.547H19.4C19.1333 56.547 19 56.4103 19 56.1026V20.9231C19 20.6838 19.1 20.547 19.3333 20.547L21.2 20.5128L23.7333 20.4444L26.6333 20.3761L29.6667 20.3419C32.4 20.3419 34.6667 20.6838 36.5333 21.4017C38.2 21.9829 39.7333 22.9402 41 24.2051C42.0667 25.2991 42.9 26.6325 43.4333 28.1026C43.9333 29.5385 44.2 31.0085 44.2 32.547C44.2 35.4872 43.5333 37.9145 42.2 39.8291ZM64.9333 29.0598V35.7265C64.9333 36 64.7667 36.1026 64.4 36.1026C62.2007 36.0206 60.0121 36.4532 58 37.3675C57.3667 37.6752 56.7667 38.0855 56.3 38.6325V56.0684C56.3 56.4103 56.1667 56.547 55.8667 56.547H49.3C49.2386 56.5567 49.176 56.5536 49.1158 56.5382C49.0556 56.5227 48.999 56.495 48.9493 56.4568C48.8996 56.4186 48.8579 56.3706 48.8265 56.3157C48.7952 56.2607 48.7748 56.1999 48.7667 56.1367V37.0598L48.7333 34.4957L48.6667 31.8291C48.6667 31.0427 48.6 30.2906 48.5333 29.5043C48.5219 29.4233 48.5392 29.3409 48.582 29.2719C48.6248 29.2029 48.6903 29.1519 48.7667 29.1282H54.7C55.0333 29.1282 55.3 29.3675 55.3667 29.6752C55.6695 30.6942 55.8157 31.7554 55.8 32.8205C56.8 31.6239 58.0333 30.6325 59.4 29.8803C60.9494 28.9976 62.6942 28.5384 64.4667 28.547C64.7 28.5128 64.9 28.6838 64.9333 28.9231V29.0598Z" fill="#00005B"/>
</svg>
