<svg width="123" height="80" viewBox="0 0 123 80" fill="none" xmlns="http://www.w3.org/2000/svg">
<path d="M80.25 0H37.75C27.3947 0 19 8.39466 19 18.75V61.25C19 71.6053 27.3947 80 37.75 80H80.25C90.6053 80 99 71.6053 99 61.25V18.75C99 8.39466 90.6053 0 80.25 0Z" fill="#330000"/>
<path d="M57.6667 47.604H45.2667L42.7333 55.4375C42.6667 55.7375 42.4001 55.9375 42.1001 55.9041H35.8333C35.4667 55.9041 35.3667 55.7041 35.4667 55.3041L46.2001 24.4041C46.3001 24.0709 46.4001 23.704 46.5333 23.304C46.6667 22.604 46.7333 21.8709 46.7333 21.1375C46.7001 20.9709 46.8333 20.8041 47.0001 20.7709H55.6333C55.9001 20.7709 56.0333 20.8709 56.0667 21.0375L68.2333 55.3709C68.3333 55.7375 68.2333 55.9041 67.9001 55.9041H60.9333C60.7001 55.9375 60.4667 55.7709 60.4001 55.5375L57.6667 47.604ZM47.2001 40.8375H55.6667C55.4667 40.1375 55.2001 39.3041 54.9001 38.4375C54.6001 37.5375 54.3001 36.5709 54.0001 35.5709C53.6667 34.5375 53.3667 33.5375 53.0333 32.5041C52.7001 31.4709 52.4001 30.504 52.1333 29.5375C51.8667 28.6044 51.6333 27.7375 51.4001 26.9375H51.3333C51.0333 28.3709 50.6667 29.8044 50.2001 31.2375C49.7001 32.8375 49.2001 34.5041 48.6667 36.1709C48.2362 37.7442 47.747 39.3008 47.2001 40.8375ZM75.6667 26.6041C74.5667 26.6375 73.5001 26.2041 72.7001 25.4375C71.9336 24.6041 71.5336 23.504 71.5667 22.3709C71.5336 21.2375 71.9667 20.1709 72.7667 19.404C73.5667 18.6375 74.6336 18.2375 75.7336 18.2375C77.0336 18.2375 78.0336 18.6375 78.7667 19.404C79.5054 20.2122 79.9 21.2765 79.8667 22.3709C79.9001 23.504 79.5001 24.6041 78.7001 25.4375C77.9336 26.2375 76.8001 26.6709 75.6667 26.6041ZM71.9336 55.5375V29.8709C71.9336 29.5375 72.0667 29.4041 72.3667 29.4041H78.9667C79.2667 29.4041 79.4001 29.5709 79.4001 29.8709V55.5375C79.4001 55.9041 79.2667 56.0709 78.9667 56.0709H72.4336C72.1001 56.0709 71.9336 55.8709 71.9336 55.5375Z" fill="#FF9A00"/>
<g clip-path="url(#clip0_75_93)">
<path d="M80.4844 0H38.5156C28.2897 0 20 8.39466 20 18.75V61.25C20 71.6053 28.2897 80 38.5156 80H80.4844C90.7103 80 99 71.6053 99 61.25V18.75C99 8.39466 90.7103 0 80.4844 0Z" fill="#00005B"/>
<path d="M63.562 24.016C64.6046 25.8293 65.194 28.028 65.33 30.612V30.68C65.33 30.9973 65.33 31.3147 65.33 31.632C65.33 31.904 65.3073 32.176 65.262 32.448C64.99 34.624 64.2646 36.6187 63.086 38.432C61.9526 40.2453 60.5246 41.7867 58.802 43.056C57.0793 44.3253 55.1753 45.2547 53.09 45.844C51.0046 46.388 48.874 46.4787 46.698 46.116C46.7433 46.7507 46.766 47.3853 46.766 48.02C46.766 48.6093 46.766 49.4933 46.766 50.672C46.766 51.8053 46.766 53.3467 46.766 55.296C46.8113 57.2453 46.8793 59.8747 46.97 63.184V63.252C46.9246 63.252 46.8793 63.2747 46.834 63.32C46.834 63.32 46.8113 63.32 46.766 63.32C46.1313 63.5013 45.3153 63.6373 44.318 63.728C43.366 63.7733 42.346 63.8187 41.258 63.864C40.2153 63.864 39.1726 63.8413 38.13 63.796C37.0873 63.7507 36.1806 63.6827 35.41 63.592C35.274 60.2827 35.206 56.7013 35.206 52.848C35.206 48.9493 35.206 44.96 35.206 40.88C35.206 36.8 35.1833 32.6973 35.138 28.572C35.138 24.4467 35.07 20.5027 34.934 16.74C36.7926 16.2413 38.81 15.8787 40.986 15.652C43.2073 15.4253 45.406 15.4027 47.582 15.584C49.8033 15.7653 51.9566 16.1733 54.042 16.808C56.1273 17.3973 57.9633 18.304 59.55 19.528C61.182 20.7067 62.5193 22.2027 63.562 24.016ZM54.79 29.116C54.4726 28.572 54.0193 28.1187 53.43 27.756C52.2966 26.8493 50.982 26.2827 49.486 26.056C47.99 25.784 46.5166 25.8293 45.066 26.192C44.9753 26.192 44.9073 26.2147 44.862 26.26C44.9073 27.076 44.9073 27.9373 44.862 28.844C44.862 29.7507 44.862 30.6573 44.862 31.564C44.9073 32.4707 44.9526 33.3547 44.998 34.216C45.0886 35.032 45.2473 35.78 45.474 36.46H45.678C46.4033 36.4147 47.174 36.392 47.99 36.392C48.806 36.3467 49.5993 36.2787 50.37 36.188C51.186 36.0973 51.9566 35.9387 52.682 35.712C53.4526 35.44 54.11 35.032 54.654 34.488C55.0166 33.9893 55.266 33.4227 55.402 32.788C55.5833 32.1533 55.606 31.5187 55.47 30.884C55.3793 30.2493 55.1526 29.66 54.79 29.116ZM77.9148 31.7C77.9601 31.836 77.9828 32.0627 77.9828 32.38C78.1641 32.2893 78.5721 32.108 79.2068 31.836C79.8868 31.564 80.5441 31.3147 81.1788 31.088C82.0401 30.816 83.0148 30.612 84.1028 30.476C85.1908 30.2947 86.2108 30.1813 87.1628 30.136C88.1148 30.0907 88.9081 30.0907 89.5428 30.136C90.2228 30.136 90.5628 30.1587 90.5628 30.204C90.5628 31.7453 90.5401 33.1053 90.4948 34.284C90.4948 35.4627 90.4948 36.528 90.4948 37.48C90.4948 38.3867 90.4948 39.2253 90.4948 39.996C90.4948 40.7667 90.5174 41.492 90.5628 42.172L89.9508 41.968C89.7241 41.8773 89.4748 41.8093 89.2028 41.764C88.9761 41.6733 88.7494 41.5827 88.5228 41.492C87.9788 41.356 87.4121 41.2427 86.8228 41.152C86.2788 41.0613 85.9841 41.016 85.9388 41.016C84.7148 40.88 83.5814 40.812 82.5388 40.812C81.5414 40.812 80.6574 40.9707 79.8868 41.288C79.1614 41.6053 78.5948 42.104 78.1868 42.784C77.7788 43.464 77.5974 44.4387 77.6428 45.708C77.6881 47.2947 77.7334 48.7907 77.7788 50.196C77.8241 51.6013 77.8468 53.0293 77.8468 54.48C77.8468 55.8853 77.8468 57.336 77.8468 58.832C77.8921 60.2827 77.9148 61.8467 77.9148 63.524V63.796C77.1441 64.0227 76.4414 64.1587 75.8068 64.204C75.1721 64.2493 74.5148 64.2493 73.8348 64.204C73.1548 64.204 72.4068 64.1813 71.5908 64.136C70.8201 64.0907 69.8908 64.1133 68.8028 64.204C68.8028 58.628 68.7348 53.052 68.5988 47.476C68.5081 41.9 68.5534 36.12 68.7348 30.136C69.2788 30.1813 69.7321 30.2267 70.0948 30.272C70.4574 30.272 70.7974 30.272 71.1148 30.272C71.4321 30.272 71.7721 30.272 72.1348 30.272C72.4974 30.2267 72.9508 30.1813 73.4948 30.136C73.6761 30.136 73.9934 30.1133 74.4468 30.068C74.9454 30.0227 75.4441 29.9773 75.9428 29.932C76.4868 29.8867 76.9401 29.8867 77.3028 29.932C77.7108 29.932 77.9148 29.9773 77.9148 30.068C77.9148 30.4307 77.9148 30.7027 77.9148 30.884C77.9148 31.0653 77.9148 31.224 77.9148 31.36C77.9148 31.4507 77.9148 31.564 77.9148 31.7Z" fill="#9999FF"/>
</g>
<defs>
<clipPath id="clip0_75_93">
<rect width="123" height="80" fill="white"/>
</clipPath>
</defs>
</svg>
